<svg xmlns="http://www.w3.org/2000/svg" xmlns:xlink="http://www.w3.org/1999/xlink" width="1920" height="2781" viewBox="0 0 1920 2781">
  <defs>
    <clipPath id="clip-path">
      <rect id="Rectangle_504" data-name="Rectangle 504" width="1920" height="2781" transform="translate(0 1125)" fill="#008e45"/>
    </clipPath>
    <clipPath id="clip-path-2">
      <rect id="Rectangle_492" data-name="Rectangle 492" width="1920" height="3417" transform="translate(0 150.887)" fill="#fff"/>
    </clipPath>
  </defs>
  <g id="Mask_Group_8" data-name="Mask Group 8" transform="translate(0 -1125)" clip-path="url(#clip-path)">
    <g id="Texture" clip-path="url(#clip-path-2)">
      <g id="Group_13" data-name="Group 13" transform="translate(-4156.362 -4376.979)" opacity="0.16">
        <g id="Group_8" data-name="Group 8">
          <path id="Path_6" data-name="Path 6" d="M4825.893,7027.936c.31.65.62,1.31.91,1.97q.975-.075,1.95-.18c.78-.07,1.57-.14,2.36-.23.33-.72.67-1.44,1-2.15-.79.08-1.57.16-2.36.23Zm992.47-700.44c.78-.08,1.57-.16,2.36-.23.15-.29.29-.58.41-.88.21-.42.4-.84.59-1.27.13-.27.26-.54.37-.81-.47-.6-.95-1.2-1.42-1.8-.32.69-.64,1.39-.96,2.08-.12.25-.23.51-.35.76C5819.033,6326.066,5818.693,6326.786,5818.363,6327.5Zm-992.47,700.44c.31.65.62,1.31.91,1.97q.975-.075,1.95-.18c.33-.72.66-1.44,1-2.15Zm993.82-703.35c-.12.25-.23.51-.35.76q.435-.06.87-.09C5820.053,6325.026,5819.883,6324.806,5819.713,6324.586Zm-1582.28-1635.06a1217.942,1217.942,0,0,0-123.57,60.76v2.34a1215.436,1215.436,0,0,1,124.37-61.21q9.045-3.825,18.12-7.49c.66-.27,1.32-.54,1.98-.8,144.35-58.06,297.07-87.49,454.28-87.49,164.53,0,324.13,32.23,474.38,95.78a1223.284,1223.284,0,0,1,479.67,364.55c.48.6.95,1.19,1.42,1.79a3.241,3.241,0,0,1,.23.29c.44.55.89,1.11,1.32,1.67q28.17,35.655,53.57,73.25a1218.71,1218.71,0,0,1,112.36,207.02c63.55,150.25,95.78,309.85,95.78,474.38s-32.23,324.13-95.78,474.38q-7.185,16.98-14.89,33.76c-.32.69-.64,1.39-.96,2.08-.12.25-.23.51-.35.76-.33.72-.67,1.44-1,2.15a1222.26,1222.26,0,0,1-631.37,609.82,1206.664,1206.664,0,0,1-354.88,90.03c-.79.08-1.57.16-2.36.23l-3.86.36c-.72.07-1.45.13-2.17.19q-55.125,4.965-111.11,4.97c-164.53,0-324.13-32.23-474.38-95.78a1215.436,1215.436,0,0,1-124.37-61.21v2.35a1215.81,1215.81,0,0,0,123.57,60.75c150.5,63.66,310.38,95.94,475.18,95.94q56.43,0,112.03-5.04c.72-.06,1.44-.13,2.16-.2q.975-.075,1.95-.18c.78-.07,1.57-.14,2.36-.23a1214.6,1214.6,0,0,0,564.05-202.84,1224.376,1224.376,0,0,0,425.56-499.39c.15-.29.29-.58.41-.88.21-.42.4-.84.59-1.27.13-.27.26-.54.37-.81q7.965-17.265,15.36-34.76c63.66-150.5,95.94-310.38,95.94-475.18s-32.28-324.68-95.94-475.18a1220.313,1220.313,0,0,0-112.55-207.37q-25.244-37.35-53.29-72.9c-.43-.56-.88-1.12-1.32-1.67-.41-.53-.83-1.06-1.25-1.58-.47-.6-.94-1.19-1.42-1.78a1223.52,1223.52,0,0,0-479.83-364.36c-150.5-63.66-310.38-95.94-475.18-95.94-157.68,0-310.85,29.55-455.61,87.86-.66.27-1.32.53-1.98.8Q4246.2,4685.816,4237.433,4689.526Zm1581.93,1635.82q.435-.06.87-.09c-.18-.23-.35-.45-.52-.67C5819.593,6324.836,5819.483,6325.1,5819.363,6325.346Zm-993.47,702.59c.31.65.62,1.31.91,1.97q.975-.075,1.95-.18c.33-.72.66-1.44,1-2.15Zm992.47-700.44c.78-.08,1.57-.16,2.36-.23.15-.29.29-.58.41-.88.21-.42.4-.84.59-1.27.13-.27.26-.54.37-.81-.47-.6-.95-1.2-1.42-1.8-.32.69-.64,1.39-.96,2.08-.12.25-.23.51-.35.76C5819.033,6326.066,5818.693,6326.786,5818.363,6327.5Zm-992.47,700.44c.31.65.62,1.31.91,1.97q.975-.075,1.95-.18c.78-.07,1.57-.14,2.36-.23.33-.72.67-1.44,1-2.15-.79.08-1.57.16-2.36.23Z" fill="#50b5de"/>
        </g>
        <g id="Group_9" data-name="Group 9">
          <path id="Path_7" data-name="Path 7" d="M4745.87,7795.92a1222.495,1222.495,0,0,1-26.737-255.444c0-164.53,32.23-324.13,95.78-474.39q6.21-14.685,12.82-29.22c.38-.83.75-1.65,1.13-2.47.74-1.64,1.5-3.27,2.25-4.9.33-.72.67-1.44,1-2.15a1222.269,1222.269,0,0,1,631.37-609.82,1206.189,1206.189,0,0,1,354.88-90.03c.78-.08,1.57-.16,2.36-.23.34-.03.69-.07,1.04-.1.81-.08,1.63-.15,2.45-.22q56.37-5.19,113.65-5.2a1234.861,1234.861,0,0,1,142,8.14v-2.07a1237.3,1237.3,0,0,0-142-8.12q-58.035,0-115.19,5.33c-.31.02-.63.05-.95.09-.49.04-.99.09-1.49.14q-.435.03-.87.09a1214.609,1214.609,0,0,0-564.05,202.84,1224.371,1224.371,0,0,0-425.56,499.39c-.34.71-.67,1.43-1,2.15s-.68,1.46-1.02,2.2c-.37.82-.75,1.64-1.12,2.47q-7.02,15.36-13.59,30.9c-63.66,150.5-95.94,310.37-95.94,475.18A1224.668,1224.668,0,0,0,4743.789,7796M5820.723,6327.266c.34-.03.69-.07,1.04-.1l-.63-.78C5821.013,6326.686,5820.873,6326.976,5820.723,6327.266Zm-992.99,704.66c.39.82.77,1.64,1.13,2.47.74-1.64,1.5-3.27,2.25-4.9-.79.09-1.58.16-2.36.23C4828.413,7030.456,4828.073,7031.186,4827.733,7031.926Z" fill="#50b5de"/>
        </g>
        <g id="Group_10" data-name="Group 10">
          <path id="Path_8" data-name="Path 8" d="M4823.723,7028.126c.31.66.62,1.32.92,1.98q.99,2.145,1.97,4.29c.38.82.75,1.64,1.12,2.47.38-.83.75-1.65,1.13-2.47-.36-.83-.74-1.65-1.13-2.47-.3-.68-.61-1.35-.93-2.02-.29-.66-.6-1.32-.91-1.97C4825.173,7028.006,4824.443,7028.066,4823.723,7028.126Zm0,0c.31.66.62,1.32.92,1.98q.99,2.145,1.97,4.29c.37-.83.75-1.65,1.12-2.47-.3-.68-.61-1.35-.93-2.02-.29-.66-.6-1.32-.91-1.97C4825.173,7028.006,4824.443,7028.066,4823.723,7028.126Zm88.481,765.44a1224.935,1224.935,0,0,0,26.189-253.09c0-164.81-32.28-324.68-95.94-475.18q-6.57-15.525-13.59-30.9c-.36-.83-.74-1.65-1.13-2.47-.3-.68-.61-1.35-.93-2.02-.29-.66-.6-1.32-.91-1.97a1224.278,1224.278,0,0,0-633.1-612.3q-39.06-16.515-78.93-30.22v2.17q39.45,13.59,78.13,29.94a1222.4,1222.4,0,0,1,631.73,610.6c.31.66.62,1.32.92,1.98q.99,2.145,1.97,4.29c.38.82.75,1.64,1.12,2.47q6.615,14.535,12.83,29.22c63.55,150.26,95.78,309.86,95.78,474.39a1222.668,1222.668,0,0,1-26.272,253.255m-86.348-765.6c.31.66.62,1.32.92,1.98q.99,2.145,1.97,4.29c.37-.83.75-1.65,1.12-2.47-.3-.68-.61-1.35-.93-2.02-.29-.66-.6-1.32-.91-1.97C4825.173,7028.006,4824.443,7028.066,4823.723,7028.126Zm0,0c.31.66.62,1.32.92,1.98q.99,2.145,1.97,4.29c.38.82.75,1.64,1.12,2.47.38-.83.75-1.65,1.13-2.47-.36-.83-.74-1.65-1.13-2.47-.3-.68-.61-1.35-.93-2.02-.29-.66-.6-1.32-.91-1.97C4825.173,7028.006,4824.443,7028.066,4823.723,7028.126Z" fill="#50b5de"/>
        </g>
        <g id="Group_11" data-name="Group 11">
          <path id="Path_9" data-name="Path 9" d="M5555.373,5565.906c0,164.8,32.28,324.67,95.93,475.18a1221.415,1221.415,0,0,0,112.56,207.37q26.4,39.06,55.85,76.13c.17.22.34.44.52.67.3.38.6.75.9,1.13l.63.78a1225.729,1225.729,0,0,0,258.1,241.59v-2.48a1224.284,1224.284,0,0,1-255.65-239.33c-.52-.64-1.03-1.28-1.54-1.92-.19-.24-.38-.48-.58-.72-.47-.6-.95-1.2-1.42-1.8q-29.01-36.57-55.11-75.2a1218.043,1218.043,0,0,1-112.37-207.02c-63.55-150.25-95.77-309.85-95.77-474.38s32.22-324.14,95.77-474.39q6.51-15.375,13.45-30.6c.4-.89.81-1.79,1.22-2.69.08-.15.15-.31.22-.47.32-.69.64-1.39.96-2.09a1224.127,1224.127,0,0,1,410.82-490.13v-2.5a1224.549,1224.549,0,0,0-412.24,490.85c-.32.69-.64,1.38-.96,2.08-.52,1.11-1.03,2.23-1.54,3.35-.41.9-.82,1.79-1.22,2.69q-6.494,14.28-12.6,28.72C5587.653,5241.226,5555.373,5401.1,5555.373,5565.906Zm265.76,760.48.63.78c.81-.08,1.63-.15,2.45-.22-.52-.64-1.03-1.28-1.54-1.92-.19-.24-.38-.48-.58-.72-.11.27-.24.54-.37.81C5821.533,6325.546,5821.343,6325.966,5821.133,6326.386Z" fill="#50b5de"/>
        </g>
        <g id="Group_12" data-name="Group 12">
          <path id="Path_10" data-name="Path 10" d="M4113.863,4451.776v4.74a1221.466,1221.466,0,0,0,87.87,152.83q25.23,37.35,53.29,72.9c.44.56.88,1.12,1.33,1.68a1223.54,1223.54,0,0,0,482.49,367.71c150.5,63.66,310.37,95.94,475.18,95.94,155.6,0,306.81-28.78,449.88-85.57.91-.36,1.83-.73,2.74-1.09,1-.4,1.99-.8,2.99-1.2.66-.27,1.32-.53,1.98-.8q8.821-3.57,17.59-7.28a1222.512,1222.512,0,0,0,388.04-261.62c.88-.88,1.75-1.76,2.62-2.64v-2.91q-2.024,2.055-4.07,4.1a1220.739,1220.739,0,0,1-387.39,261.19q-9.03,3.825-18.11,7.49c-.66.27-1.32.53-1.98.8l-.45.18c-.91.36-1.82.73-2.74,1.09-143.42,57.22-295.04,86.21-451.1,86.21-164.53,0-324.14-32.22-474.39-95.77a1223.311,1223.311,0,0,1-481.3-366.63c-.45-.56-.89-1.12-1.33-1.68q-28.17-35.655-53.57-73.25A1218.092,1218.092,0,0,1,4113.863,4451.776Z" fill="#50b5de"/>
        </g>
      </g>
    </g>
  </g>
</svg>
