<svg xmlns="http://www.w3.org/2000/svg" xmlns:xlink="http://www.w3.org/1999/xlink" width="1920" height="976.407" viewBox="0 0 1920 976.407">
  <defs>
    <clipPath id="clip-path">
      <rect id="Rectangle_124" data-name="Rectangle 124" width="1920" height="976.407" transform="translate(0 148.44)" fill="#50b6df"/>
    </clipPath>
  </defs>
  <g id="Mask_Group_3" data-name="Mask Group 3" transform="translate(0 -148.44)" clip-path="url(#clip-path)">
    <g id="Texture" transform="translate(-2071.808)" opacity="0.16">
      <g id="Group_241" data-name="Group 241">
        <path id="Path_305" data-name="Path 305" d="M2741.339,2650.958c.31.649.62,1.309.91,1.97q.975-.075,1.95-.181c.78-.069,1.57-.14,2.36-.23.33-.72.67-1.44,1-2.149-.79.08-1.57.16-2.36.229Zm992.47-700.441c.78-.079,1.57-.16,2.36-.23.15-.29.29-.579.41-.879.21-.42.4-.841.59-1.27.13-.27.26-.541.37-.811-.47-.6-.95-1.2-1.42-1.8-.32.69-.64,1.39-.96,2.079-.12.25-.23.511-.35.761C3734.479,1949.087,3734.139,1949.807,3733.809,1950.517Zm-992.47,700.441c.31.649.62,1.309.91,1.97q.975-.075,1.95-.181c.33-.719.66-1.44,1-2.15Zm993.82-703.351c-.12.25-.23.511-.35.761q.435-.062.87-.09C3735.5,1948.047,3735.329,1947.827,3735.159,1947.607ZM2152.879,312.547a1218.184,1218.184,0,0,0-123.57,60.76v2.341a1215.435,1215.435,0,0,1,124.37-61.21q9.045-3.825,18.12-7.49c.66-.27,1.32-.54,1.98-.8,144.35-58.061,297.07-87.49,454.28-87.49,164.53,0,324.13,32.23,474.38,95.78a1223.259,1223.259,0,0,1,479.67,364.55c.48.6.95,1.19,1.42,1.79a3.271,3.271,0,0,1,.23.289c.44.551.89,1.111,1.32,1.671q28.17,35.655,53.57,73.25a1218.632,1218.632,0,0,1,112.36,207.02c63.55,150.25,95.78,309.849,95.78,474.38s-32.23,324.129-95.78,474.379q-7.185,16.98-14.89,33.761c-.32.69-.64,1.39-.96,2.079-.12.25-.23.511-.35.761-.33.719-.67,1.439-1,2.149a1222.262,1222.262,0,0,1-631.37,609.82,1206.617,1206.617,0,0,1-354.88,90.031c-.79.08-1.57.16-2.36.229l-3.86.361c-.72.07-1.45.129-2.17.19q-55.125,4.965-111.11,4.97c-164.53,0-324.13-32.23-474.38-95.781a1215.213,1215.213,0,0,1-124.37-61.209v2.349a1215.639,1215.639,0,0,0,123.57,60.75c150.5,63.661,310.38,95.941,475.18,95.941q56.43,0,112.03-5.04c.72-.061,1.44-.131,2.16-.2q.975-.075,1.95-.181c.78-.069,1.57-.14,2.36-.23a1214.619,1214.619,0,0,0,564.05-202.839,1224.355,1224.355,0,0,0,425.56-499.391c.15-.29.29-.579.41-.879.21-.42.4-.841.59-1.27.13-.27.26-.541.37-.811q7.965-17.265,15.36-34.76c63.66-150.5,95.94-310.379,95.94-475.179s-32.28-324.68-95.94-475.18a1220.3,1220.3,0,0,0-112.55-207.371q-25.245-37.348-53.29-72.9c-.43-.56-.88-1.121-1.32-1.67-.41-.53-.83-1.06-1.25-1.58-.47-.6-.94-1.19-1.42-1.78a1223.511,1223.511,0,0,0-479.83-364.361c-150.5-63.659-310.38-95.94-475.18-95.94-157.68,0-310.85,29.551-455.61,87.86-.66.271-1.32.531-1.98.8Q2161.649,308.838,2152.879,312.547Zm1581.93,1635.821q.435-.062.87-.09c-.18-.231-.35-.451-.52-.671C3735.039,1947.857,3734.929,1948.118,3734.809,1948.368Zm-993.47,702.59c.31.649.62,1.309.91,1.97q.975-.075,1.95-.181c.33-.719.66-1.44,1-2.15Zm992.47-700.441c.78-.079,1.57-.16,2.36-.23.15-.29.29-.579.41-.879.21-.42.4-.841.59-1.27.13-.27.26-.541.37-.811-.47-.6-.95-1.2-1.42-1.8-.32.69-.64,1.39-.96,2.079-.12.25-.23.511-.35.761C3734.479,1949.087,3734.139,1949.807,3733.809,1950.517Zm-992.47,700.441c.31.649.62,1.309.91,1.97q.975-.075,1.95-.181c.78-.069,1.57-.14,2.36-.23.33-.72.67-1.44,1-2.149-.79.08-1.57.16-2.36.229Z" fill="#50b5de"/>
      </g>
      <g id="Group_242" data-name="Group 242">
        <path id="Path_306" data-name="Path 306" d="M2661.316,3418.941a1222.512,1222.512,0,0,1-26.737-255.444c0-164.529,32.23-324.129,95.78-474.39q6.21-14.685,12.82-29.219c.38-.831.75-1.65,1.13-2.47.74-1.64,1.5-3.27,2.25-4.9.33-.72.67-1.44,1-2.149a1222.275,1222.275,0,0,1,631.37-609.821,1206.187,1206.187,0,0,1,354.88-90.03c.78-.079,1.57-.16,2.36-.23.34-.029.69-.069,1.04-.1.81-.081,1.63-.151,2.45-.22q56.37-5.19,113.65-5.2a1234.978,1234.978,0,0,1,142,8.141v-2.071a1237.56,1237.56,0,0,0-142-8.119q-58.035,0-115.19,5.329c-.31.02-.63.05-.95.091-.49.04-.99.089-1.49.14q-.435.029-.87.09a1214.6,1214.6,0,0,0-564.05,202.84A1224.381,1224.381,0,0,0,2745.2,2650.6c-.34.71-.67,1.431-1,2.15s-.68,1.461-1.02,2.2c-.37.819-.75,1.639-1.12,2.47q-7.02,15.36-13.59,30.9c-63.66,150.5-95.94,310.37-95.94,475.18a1224.769,1224.769,0,0,0,26.7,255.526M3736.169,1950.287c.34-.029.69-.069,1.04-.1l-.63-.78C3736.459,1949.708,3736.319,1950,3736.169,1950.287Zm-992.99,704.661c.39.819.77,1.639,1.13,2.47.74-1.64,1.5-3.27,2.25-4.9-.79.09-1.58.161-2.36.23C2743.859,2653.477,2743.519,2654.208,2743.179,2654.948Z" fill="#50b5de"/>
      </g>
      <g id="Group_243" data-name="Group 243">
        <path id="Path_307" data-name="Path 307" d="M2739.169,2651.148c.31.659.62,1.32.92,1.98q.99,2.143,1.97,4.29c.38.82.75,1.639,1.12,2.47.38-.831.75-1.65,1.13-2.47-.36-.831-.74-1.651-1.13-2.47-.3-.681-.61-1.351-.93-2.02-.29-.661-.6-1.321-.91-1.97C2740.619,2651.028,2739.889,2651.087,2739.169,2651.148Zm0,0c.31.659.62,1.32.92,1.98q.99,2.143,1.97,4.29c.37-.831.75-1.651,1.12-2.47-.3-.681-.61-1.351-.93-2.02-.29-.661-.6-1.321-.91-1.97C2740.619,2651.028,2739.889,2651.087,2739.169,2651.148Zm88.48,765.44a1224.872,1224.872,0,0,0,26.19-253.091c0-164.81-32.28-324.68-95.94-475.18q-6.57-15.523-13.59-30.9c-.36-.831-.74-1.651-1.13-2.47-.3-.681-.61-1.351-.93-2.02-.29-.661-.6-1.321-.91-1.97a1224.284,1224.284,0,0,0-633.1-612.3q-39.06-16.515-78.93-30.22v2.169q39.45,13.591,78.13,29.94a1222.389,1222.389,0,0,1,631.73,610.6c.31.659.62,1.32.92,1.98q.99,2.143,1.97,4.29c.38.82.75,1.639,1.12,2.47q6.615,14.533,12.83,29.219c63.55,150.261,95.78,309.861,95.78,474.39a1222.746,1222.746,0,0,1-26.272,253.255m-86.348-765.6c.31.659.62,1.32.92,1.98q.99,2.143,1.97,4.29c.37-.831.75-1.651,1.12-2.47-.3-.681-.61-1.351-.93-2.02-.29-.661-.6-1.321-.91-1.97C2740.619,2651.028,2739.889,2651.087,2739.169,2651.148Zm0,0c.31.659.62,1.32.92,1.98q.99,2.143,1.97,4.29c.38.82.75,1.639,1.12,2.47.38-.831.75-1.65,1.13-2.47-.36-.831-.74-1.651-1.13-2.47-.3-.681-.61-1.351-.93-2.02-.29-.661-.6-1.321-.91-1.97C2740.619,2651.028,2739.889,2651.087,2739.169,2651.148Z" fill="#50b5de"/>
      </g>
      <g id="Group_244" data-name="Group 244">
        <path id="Path_308" data-name="Path 308" d="M3470.819,1188.928c0,164.8,32.28,324.669,95.93,475.179a1221.355,1221.355,0,0,0,112.56,207.37q26.4,39.06,55.85,76.13c.17.22.34.44.52.671.3.38.6.75.9,1.13l.63.78a1225.743,1225.743,0,0,0,258.1,241.59V2189.3a1224.247,1224.247,0,0,1-255.65-239.329c-.52-.641-1.03-1.28-1.54-1.921-.19-.24-.38-.48-.58-.72-.47-.6-.95-1.2-1.42-1.8q-29.01-36.57-55.11-75.2a1217.946,1217.946,0,0,1-112.37-207.02c-63.55-150.25-95.77-309.849-95.77-474.379s32.22-324.141,95.77-474.391q6.51-15.375,13.45-30.6c.4-.891.81-1.79,1.22-2.69.08-.151.15-.31.22-.47.32-.691.64-1.39.96-2.09a1224.139,1224.139,0,0,1,410.82-490.131v-2.5a1224.566,1224.566,0,0,0-412.24,490.851c-.32.689-.64,1.379-.96,2.08-.52,1.109-1.03,2.229-1.54,3.349-.41.9-.82,1.791-1.22,2.691q-6.5,14.278-12.6,28.72C3503.1,864.248,3470.819,1024.118,3470.819,1188.928Zm265.76,760.48.63.78c.81-.081,1.63-.151,2.45-.22-.52-.641-1.03-1.28-1.54-1.921-.19-.24-.38-.48-.58-.72-.11.27-.24.541-.37.811C3736.979,1948.567,3736.789,1948.988,3736.579,1949.408Z" fill="#50b5de"/>
      </g>
      <g id="Group_245" data-name="Group 245">
        <path id="Path_309" data-name="Path 309" d="M2029.309,74.8v4.74a1221.37,1221.37,0,0,0,87.87,152.831q25.23,37.35,53.29,72.9c.44.559.88,1.12,1.33,1.68a1228.9,1228.9,0,0,0,94.45,106.089,1229.485,1229.485,0,0,0,180.67,149.07,1220.3,1220.3,0,0,0,207.37,112.551c150.5,63.659,310.37,95.939,475.18,95.939,155.6,0,306.81-28.78,449.88-85.569.91-.36,1.83-.731,2.74-1.09,1-.4,1.99-.8,2.99-1.2.66-.271,1.32-.53,1.98-.8q8.82-3.571,17.59-7.28a1220.679,1220.679,0,0,0,207.37-112.551,1230.008,1230.008,0,0,0,180.67-149.07c.88-.879,1.75-1.759,2.62-2.639v-2.91q-2.025,2.053-4.07,4.1a1227.831,1227.831,0,0,1-180.37,148.821,1218.786,1218.786,0,0,1-207.02,112.37q-9.03,3.824-18.11,7.49c-.66.269-1.32.529-1.98.8l-.45.181c-.91.359-1.82.729-2.74,1.089-143.42,57.22-295.04,86.21-451.1,86.21-164.53,0-324.14-32.22-474.39-95.769a1219.07,1219.07,0,0,1-207.01-112.37A1227.321,1227.321,0,0,1,2267.7,411.587a1226.911,1226.911,0,0,1-93.92-105.439c-.45-.561-.89-1.12-1.33-1.681q-28.17-35.654-53.57-73.25A1217.966,1217.966,0,0,1,2029.309,74.8Z" fill="#50b5de"/>
      </g>
    </g>
  </g>
</svg>
